<?xml version="1.0" encoding="UTF-8"?>
<svg xmlns="http://www.w3.org/2000/svg" width="480" height="480" viewBox="0 0 480 480">
  <defs>
    <linearGradient id="tmxSilver" x1="18" y1="8" x2="47" y2="55" gradientUnits="userSpaceOnUse">
      <stop offset="0" stop-color="#f7f9fa"/>
      <stop offset=".52" stop-color="#c7ced3"/>
      <stop offset="1" stop-color="#8d969d"/>
    </linearGradient>
    <linearGradient id="tmxDarkSilver" x1="19" y1="10" x2="49" y2="35" gradientUnits="userSpaceOnUse">
      <stop offset="0" stop-color="#dce2e6"/>
      <stop offset="1" stop-color="#6f7981"/>
    </linearGradient>
    <linearGradient id="tmxNozzle" x1="24" y1="43" x2="43" y2="60" gradientUnits="userSpaceOnUse">
      <stop offset="0" stop-color="#eef2f4"/>
      <stop offset=".55" stop-color="#a8b0b6"/>
      <stop offset="1" stop-color="#59636c"/>
    </linearGradient>
    <pattern id="tmxCarbonRed" width="6" height="6" patternUnits="userSpaceOnUse" patternTransform="rotate(-18)">
      <rect width="6" height="6" fill="#D71F2A"/>
      <path d="M-2 1 1-2M0 6 6 0M5 8 8 5" fill="none" stroke="#250204" stroke-width="1.05" opacity=".55"/>
      <path d="M-2 5 5-2M1 7 7 1" fill="none" stroke="#7c0810" stroke-width=".85" opacity=".62"/>
      <path d="M0 0h6v6h-6z" fill="none" stroke="#f06a70" stroke-width=".35" opacity=".28"/>
      <path d="M0 3h6M3 0v6" fill="none" stroke="#180102" stroke-width=".28" opacity=".22"/>
    </pattern>
  </defs>
  <rect width="480" height="480" fill="#ffffff"/>
  <g transform="translate(98 128)">
    <g transform="scale(1.25)">
      <rect width="64" height="64" rx="14" fill="#e9e9e9"/>
      <path d="M13.84,50.354a19.7,19.7,0,0,0,13.883,5.79A19.944,19.944,0,0,0,41.858,22.182Z" fill="url(#tmxSilver)"/>
      <path d="M41.858,22.181,13.84,50.354l.061.059A220.548,220.548,0,0,0,46.378,29.277a19.964,19.964,0,0,0-4.52-7.1" fill="url(#tmxCarbonRed)"/>
      <path d="M36.381,7.856A19.943,19.943,0,0,0,22.327,41.818L50.345,13.646a19.693,19.693,0,0,0-13.964-5.79" fill="url(#tmxSilver)"/>
      <path d="M36.381,7.856A19.636,19.636,0,0,0,26.04,10.782a22.742,22.742,0,0,0-5.91-.745,23.084,23.084,0,0,0-9.477,2.124.632.632,0,0,0,.129,1.191,13.52,13.52,0,0,1,8.069,5.137A20.06,20.06,0,0,0,17.41,33.534a19.873,19.873,0,0,1,2-3.488c1.819-2.5,3.743-3.8,6.585-5.723,2.093-1.416,5-3.077,13.359-6.512a28.421,28.421,0,0,0,6.12-2.821c1.4-.831,2.461-1.615,2.8-2.842.024-.086.045-.172.065-.256A19.655,19.655,0,0,0,36.381,7.856" fill="url(#tmxDarkSilver)"/>
      <path d="M39.69,14.551c.727,1.285-.728,3.495-3.249,4.937s-5.154,1.569-5.88.284.727-3.495,3.248-4.937,5.154-1.569,5.881-.284" fill="#fff"/>
      <circle cx="36.8" cy="16.8" r="1.25" fill="#28323a"/>
      <g transform="translate(-17 1) rotate(-45 34.2 12.5) scale(1.05)">
        <ellipse cx="34.25" cy="18.4" rx="12.85" ry="2.65" fill="#d9dee2" stroke="#59636c" stroke-width=".85"/>
        <path d="M28.3,7.2h11.9l3.8,9.65c-5.75,1.65-12.65,1.65-19.55,0Z" fill="#c3cbd0" stroke="#59636c" stroke-width=".9" stroke-linejoin="round"/>
        <path d="M31.15,1.95h6.25l1.55,5.6c-2.45.9-5.4.9-8.95,0Z" fill="#dce2e6" stroke="#59636c" stroke-width=".85" stroke-linejoin="round"/>
        <ellipse cx="34.25" cy="2.15" rx="3.15" ry=".95" fill="#eef2f4" stroke="#59636c" stroke-width=".7"/>
      </g>
      <path d="M23.4,47.75h17.2l2.05,6.65H21.35Z" fill="url(#tmxNozzle)" stroke="#525d65" stroke-width=".85" stroke-linejoin="round"/>
      <path d="M26.75,54.2h10.5l-2,4.8h-6.5Z" fill="#7e8890" stroke="#525d65" stroke-width=".85" stroke-linejoin="round"/>
      <path d="M29.45,58.65h5.1l-1.25,2.8h-2.6Z" fill="#353f47"/>
      <rect x="24.7" y="45.75" width="14.6" height="3.45" rx="1.05" fill="#dfe4e7" stroke="#525d65" stroke-width=".75"/>
      <path d="M26.25,50.55h13.55" fill="none" stroke="#f4f6f7" stroke-width="1.1" stroke-linecap="round" opacity=".72"/>
    </g>
    <text x="106" y="46" font-family="Arial, Helvetica, sans-serif" font-size="30" font-weight="700" fill="#242424">Tinman</text>
    <text x="107" y="72" font-family="Arial, Helvetica, sans-serif" font-size="12" fill="#5d666b">Based on Orca Slicer Version 2.4.2</text>
    <text x="107" y="90" font-family="Arial, Helvetica, sans-serif" font-size="11" fill="#7a8287">Tinman Preview v2026.09.27-general-preview.1</text>
    <text x="107" y="110" font-family="Arial, Helvetica, sans-serif" font-size="10" fill="#7a8287">Includes improvements inspired by</text>
    <text x="107" y="124" font-family="Arial, Helvetica, sans-serif" font-size="10" fill="#7a8287">PrusaSlicer 3.0.0-alpha11</text>
  </g>
</svg>
